<svg xmlns="http://www.w3.org/2000/svg" viewBox="0 0 100 100" width="100" height="100">
  <defs>
    <linearGradient id="accent" x1="0%" y1="0%" x2="100%" y2="100%">
      <stop offset="0%" stop-color="#1e3a5f"/>
      <stop offset="100%" stop-color="#2dd4bf"/>
    </linearGradient>
  </defs>
  <!-- Celtic knot inspired logo -->
  <g fill="none" stroke-width="8" stroke-linecap="round" stroke-linejoin="round">
    <!-- Main structure in dark blue -->
    <path d="M50 10 L50 30 M50 70 L50 90" stroke="#1e3a5f"/>
    <path d="M10 50 L30 50 M70 50 L90 50" stroke="#1e3a5f"/>
    <!-- Diagonal elements -->
    <path d="M22 22 L35 35 M65 65 L78 78" stroke="#1e3a5f"/>
    <path d="M78 22 L65 35 M35 65 L22 78" stroke="#1e3a5f"/>
    <!-- Center circle -->
    <circle cx="50" cy="50" r="15" stroke="#1e3a5f"/>
    <!-- Accent element -->
    <path d="M65 35 L78 22" stroke="#2dd4bf"/>
    <!-- Loop ends -->
    <path d="M50 10 Q35 10 35 25 Q35 35 45 40" stroke="#1e3a5f"/>
    <path d="M50 10 Q65 10 65 25 Q65 35 55 40" stroke="#1e3a5f"/>
    <path d="M50 90 Q35 90 35 75 Q35 65 45 60" stroke="#1e3a5f"/>
    <path d="M50 90 Q65 90 65 75 Q65 65 55 60" stroke="#1e3a5f"/>
    <path d="M10 50 Q10 35 25 35 Q35 35 40 45" stroke="#1e3a5f"/>
    <path d="M10 50 Q10 65 25 65 Q35 65 40 55" stroke="#1e3a5f"/>
    <path d="M90 50 Q90 35 75 35 Q65 35 60 45" stroke="#1e3a5f"/>
    <path d="M90 50 Q90 65 75 65 Q65 65 60 55" stroke="#1e3a5f"/>
  </g>
</svg>